<svg xmlns="http://www.w3.org/2000/svg" viewBox="0 0 1024 1024">
  <defs>
    <radialGradient id="sky" cx="32%" cy="24%" r="94%">
      <stop offset="0" stop-color="#2b2d55"/>
      <stop offset="0.56" stop-color="#13172d"/>
      <stop offset="1" stop-color="#080b17"/>
    </radialGradient>
    <linearGradient id="star" x1="0" y1="0" x2="1" y2="1">
      <stop offset="0" stop-color="#d9d0ff"/>
      <stop offset="0.55" stop-color="#a998ff"/>
      <stop offset="1" stop-color="#ffad7a"/>
    </linearGradient>
  </defs>
  <rect x="40" y="40" width="944" height="944" rx="224" fill="url(#sky)"/>
  <circle cx="512" cy="512" r="284" fill="none" stroke="#a998ff" stroke-opacity="0.24" stroke-width="10"/>
  <ellipse cx="512" cy="512" rx="386" ry="146" fill="none" stroke="#ffad7a" stroke-opacity="0.68" stroke-width="13" transform="rotate(-17 512 512)"/>
  <circle cx="824" cy="348" r="27" fill="#ffad7a"/>
  <path d="M512 230c20 165 85 230 250 250-165 20-230 85-250 250-20-165-85-230-250-250 165-20 230-85 250-250Z" fill="url(#star)"/>
  <path d="M278 250c7 57 29 79 86 86-57 7-79 29-86 86-7-57-29-79-86-86 57-7 79-29 86-86Z" fill="#8cddd5" fill-opacity="0.92"/>
  <circle cx="748" cy="704" r="12" fill="#c2b7ff"/>
</svg>
